<?xml version="1.0" encoding="utf-8"?>
<svg viewBox="0 0 511.3692165706418 95.90627844795814" width="511.369px" height="95.906px" xmlns="http://www.w3.org/2000/svg">
  <g>
    <rect width="3.181460239090526" height="69.74371189594639" x="403.84842994526315" y="13.081283276005877" fill="#ff4057" opacity="1" stroke-width="0" stroke="transparent" fill-opacity="1" class="rect-o-0" rx="1%" id="o-0"/>
  </g>
  <g transform="matrix(1, 0, 0, 1, 0, 13.254775)">
    <svg viewBox="0 0 395.52 69.39672825467304" height="69.39672825467304" width="395.52">
      <g>
        <svg viewBox="0 0 395.52 69.39672825467304" height="69.39672825467304" width="395.52">
          <g>
            <svg viewBox="0 0 395.52 35.278596491228065" height="35.278596491228065" width="395.52">
              <g transform="matrix(1,0,0,1,0,0)">
                <svg width="395.52" viewBox="4.46999979019165 -37.869998931884766 429.67999267578125 38.36000061035156" height="35.278596491228065" data-palette-color="#ff4057">
                  <g class="undefined-text-0" id="text-0">
                    <path d="M18.6-3.03L18.82-3.03Q22.8-3.03 26.83-4.57L26.83-4.57 27.91-1.2Q26.05-0.27 23.44 0.11 20.83 0.49 18.82 0.49L18.82 0.49 18.48 0.49Q9.79 0.49 6.84-4.49L6.84-4.49Q5.03-7.52 4.64-12.65L4.64-12.65Q4.47-15.11 4.47-18.04 4.47-20.97 4.63-23.62 4.79-26.27 5.27-28.48 5.76-30.69 6.69-32.42 7.62-34.16 9.18-35.35L9.18-35.35Q12.35-37.84 18.41-37.84L18.41-37.84Q22.31-37.84 24.69-37.34 27.08-36.84 27.91-36.52L27.91-36.52 26.81-32.67Q22.05-34.33 18.66-34.33 15.28-34.33 13.46-33.51 11.65-32.69 10.62-30.81L10.62-30.81Q8.84-27.59 8.84-18.53L8.84-18.53 8.84-16.72Q8.84-9.28 10.77-6.32L10.77-6.32Q12.92-3.03 18.6-3.03L18.6-3.03ZM48.7 0.49L47.19 0.49Q38.5 0.49 35.72-4.98L35.72-4.98Q34.08-8.15 33.79-13.45L33.79-13.45Q33.66-15.94 33.66-18.87 33.66-21.8 33.84-24.43 34.01-27.05 34.51-29.17 35.01-31.3 35.92-32.92 36.84-34.55 38.33-35.64L38.33-35.64Q41.4-37.84 47.19-37.84L47.19-37.84 48.7-37.84Q57.76-37.84 60.3-32.96L60.3-32.96Q61.89-29.91 62.08-24.46L62.08-24.46Q62.18-21.8 62.18-18.84 62.18-15.87 62.03-13.37 61.89-10.86 61.42-8.74 60.96-6.62 60.07-4.91 59.18-3.2 57.66-2L57.66-2Q54.54 0.49 48.7 0.49L48.7 0.49ZM47.19-3.03L48.65-3.03Q51.34-3.03 53.11-3.61 54.88-4.2 55.91-5.66L55.91-5.66Q57.81-8.37 57.81-16.06L57.81-16.06 57.81-18.7Q57.81-22.39 57.61-25.27 57.42-28.15 56.56-30.13L56.56-30.13Q54.81-34.23 48.95-34.23L48.95-34.23 46.9-34.23Q40.94-34.23 39.28-30.4L39.28-30.4Q38.23-27.95 38.13-24.63 38.03-21.31 38.03-18.7L38.03-18.7 38.03-16.06Q38.03-8.86 40.18-5.91L40.18-5.91Q42.26-3.03 47.19-3.03L47.19-3.03ZM72.36 0L72.36-37.35 75.65-37.35 92.84-10.21 95.06-5.59 94.53-10.72 94.53-37.35 98.31-37.35 98.31 0 94.82 0 77.75-27.08 75.61-31.27 76.14-26.29 76.14 0 72.36 0ZM122.7-3.03L122.92-3.03Q126.9-3.03 130.93-4.57L130.93-4.57 132-1.2Q130.14-0.27 127.53 0.11 124.92 0.49 122.92 0.49L122.92 0.49 122.58 0.49Q113.88 0.49 110.93-4.49L110.93-4.49Q109.12-7.52 108.73-12.65L108.73-12.65Q108.56-15.11 108.56-18.04 108.56-20.97 108.72-23.62 108.88-26.27 109.37-28.48 109.86-30.69 110.78-32.42 111.71-34.16 113.27-35.35L113.27-35.35Q116.45-37.84 122.5-37.84L122.5-37.84Q126.41-37.84 128.79-37.34 131.17-36.84 132-36.52L132-36.52 130.9-32.67Q126.14-34.33 122.76-34.33 119.38-34.33 117.56-33.51 115.74-32.69 114.71-30.81L114.71-30.81Q112.93-27.59 112.93-18.53L112.93-18.53 112.93-16.72Q112.93-9.28 114.86-6.32L114.86-6.32Q117.01-3.03 122.7-3.03L122.7-3.03ZM139 0L139-37.35 160.17-37.35 160.17-33.74 143.15-33.74 143.15-20.85 156.87-20.85 156.87-17.26 143.15-17.26 143.15-3.59 160.83-3.59 160.83 0 139 0ZM182.75-11.72L182.75-11.72Q181.75-11.67 179.25-11.67 176.75-11.67 172.33-12.33L172.33-12.33 172.33 0 168.18 0 168.18-37.21Q175.28-37.87 182.31-37.87L182.31-37.87Q188.22-37.87 190.59-35.21L190.59-35.21Q192.59-32.96 192.59-27.78L192.59-27.78 192.59-24.9Q192.59-20.9 191.71-18.07L191.71-18.07Q189.83-12.16 182.75-11.72ZM182.48-34.35L182.48-34.35Q175.79-34.35 172.33-34.08L172.33-34.08 172.33-15.77Q176.6-15.21 179.93-15.21 183.26-15.21 184.72-15.69 186.17-16.16 186.97-17.29L186.97-17.29Q188.34-19.19 188.34-24.85L188.34-24.85 188.34-27.88Q188.34-31.37 186.97-32.86L186.97-32.86Q185.66-34.35 182.48-34.35ZM205.97 0L205.97-33.74 196.01-33.74 196.01-37.35 220.42-37.35 220.42-33.74 210.12-33.74 210.12 0 205.97 0Z" fill="#ff4057"/>
                    <path d="M240.76-11.72L240.76-11.72Q239.76-11.67 237.25-11.67 234.75-11.67 230.33-12.33L230.33-12.33 230.33 0 226.18 0 226.18-37.21Q233.29-37.87 240.32-37.87L240.32-37.87Q246.23-37.87 248.59-35.21L248.59-35.21Q250.6-32.96 250.6-27.78L250.6-27.78 250.6-24.9Q250.6-20.9 249.72-18.07L249.72-18.07Q247.84-12.16 240.76-11.72ZM240.49-34.35L240.49-34.35Q233.8-34.35 230.33-34.08L230.33-34.08 230.33-15.77Q234.6-15.21 237.94-15.21 241.27-15.21 242.72-15.69 244.17-16.16 244.98-17.29L244.98-17.29Q246.35-19.19 246.35-24.85L246.35-24.85 246.35-27.88Q246.35-31.37 244.98-32.86L244.98-32.86Q243.66-34.35 240.49-34.35ZM254.91 0L267.15-37.35 272.83-37.35 285.9 0 281.48 0 277.77-10.96 262.73-10.96 259.21 0 254.91 0ZM263.85-14.45L276.59-14.45 270-34.06 269.25-31.27 263.85-14.45ZM297.27 0L297.27-33.74 287.31-33.74 287.31-37.35 311.72-37.35 311.72-33.74 301.42-33.74 301.42 0 297.27 0ZM330.62-3.03L330.84-3.03Q334.82-3.03 338.85-4.57L338.85-4.57 339.92-1.2Q338.06-0.27 335.45 0.11 332.84 0.49 330.84 0.49L330.84 0.49 330.5 0.49Q321.8 0.49 318.85-4.49L318.85-4.49Q317.04-7.52 316.65-12.65L316.65-12.65Q316.48-15.11 316.48-18.04 316.48-20.97 316.64-23.62 316.8-26.27 317.29-28.48 317.78-30.69 318.7-32.42 319.63-34.16 321.19-35.35L321.19-35.35Q324.37-37.84 330.42-37.84L330.42-37.84Q334.33-37.84 336.71-37.34 339.09-36.84 339.92-36.52L339.92-36.52 338.82-32.67Q334.06-34.33 330.68-34.33 327.3-34.33 325.48-33.51 323.66-32.69 322.63-30.81L322.63-30.81Q320.85-27.59 320.85-18.53L320.85-18.53 320.85-16.72Q320.85-9.28 322.78-6.32L322.78-6.32Q324.93-3.03 330.62-3.03L330.62-3.03ZM346.92 0L346.92-37.35 351.07-37.35 351.07-20.48 368.73-20.48 368.73-37.35 372.85-37.35 372.85 0 368.73 0 368.73-16.94 351.07-16.94 351.07 0 346.92 0ZM384.37 0L384.37-37.35 405.54-37.35 405.54-33.74 388.52-33.74 388.52-20.85 402.24-20.85 402.24-17.26 388.52-17.26 388.52-3.59 406.2-3.59 406.2 0 384.37 0ZM409.86-2.47L411.47-5.88Q417.01-2.95 422.31-2.95L422.31-2.95Q428.46-2.95 429.51-6.88L429.51-6.88Q429.85-8.18 429.85-9.86L429.85-9.86 429.85-10.82Q429.85-12.52 429.61-13.57 429.36-14.62 428.58-15.28L428.58-15.28Q427.31-16.38 422.58-17.11L422.58-17.11Q418.35-17.77 416.74-18.36 415.13-18.95 414.09-19.64 413.06-20.34 412.32-21.39L412.32-21.39Q410.81-23.58 410.81-27.47L410.81-27.47 410.81-27.71Q410.81-35.77 417.5-37.35L417.5-37.35Q419.62-37.84 422.31-37.84L422.31-37.84 422.63-37.84Q428.9-37.84 432.88-36.04L432.88-36.04 431.61-32.3Q426.8-34.38 422.75-34.38L422.75-34.38 422.53-34.38Q418.06-34.38 416.38-32.69L416.38-32.69Q414.96-31.27 414.96-27.78L414.96-27.78 414.96-27.69Q414.96-23.71 417.16-22.46L417.16-22.46Q418.65-21.66 422.49-21.04 426.34-20.43 428.22-20.01 430.1-19.58 431.42-18.6L431.42-18.6Q434.15-16.55 434.15-10.82L434.15-10.82 434.15-10.5Q434.15-1.73 427.09-0.05L427.09-0.05Q424.92 0.49 422.99 0.49 421.06 0.49 419.49 0.35 417.91 0.22 416.28-0.12L416.28-0.12Q412.45-0.9 409.86-2.47L409.86-2.47Z" fill="#dcdcdc"/>
                  </g>
                </svg>
              </g>
            </svg>
          </g>
          <g transform="matrix(1,0,0,1,94.9248,43.607026436491225)">
            <svg viewBox="0 0 300.5952 25.78970181818182" height="25.78970181818182" width="300.5952">
              <g transform="matrix(1,0,0,1,0,0)">
                <svg width="300.5952" viewBox="0.8999999761581421 -35.45000076293945 527.949951171875 45.30000305175781" height="25.78970181818182" data-palette-color="#dcdcdc">
                  <path d="M2.35-8.6L5.8-8.6 5.8-26.4 2.25-26.4Q1.4-26.4 1.05-28.55L1.05-28.55Q0.9-29.6 0.9-30.7 0.9-31.8 1.05-32.85L1.05-32.85Q1.4-35 2.25-35L2.25-35 19.05-35Q19.9-35 20.2-32.85L20.2-32.85Q20.4-31.8 20.4-30.7 20.4-29.6 20.2-28.55L20.2-28.55Q19.9-26.4 19.05-26.4L19.05-26.4 15.7-26.4 15.7-8.6 19.2-8.6Q20.05-8.6 20.4-6.45L20.4-6.45Q20.6-5.4 20.6-4.3 20.6-3.2 20.4-2.15L20.4-2.15Q20.05 0 19.2 0L19.2 0 2.35 0Q1.5 0 1.2-2.15L1.2-2.15Q1-3.2 1-4.3 1-5.4 1.2-6.45L1.2-6.45Q1.5-8.6 2.35-8.6L2.35-8.6ZM38.25-35.45Q41.9-35.45 44.67-34.43 47.45-33.4 47.45-31.65 47.45-29.9 46.12-27.33 44.8-24.75 43.9-24.75L43.9-24.75Q43.65-24.75 43.32-25.03 43-25.3 41.82-25.63 40.65-25.95 39.8-25.95L39.8-25.95Q36.9-25.95 35.12-23.9 33.35-21.85 33.35-17.63 33.35-13.4 35.17-11.35 37-9.3 39.8-9.3L39.8-9.3Q40.95-9.3 42.37-9.63 43.8-9.95 44.4-10.55L44.4-10.55Q44.5-10.65 44.8-10.65 45.1-10.65 45.92-9.53 46.75-8.4 47.45-6.58 48.15-4.75 48.15-3.75L48.15-3.75Q48.15-1.8 45.15-0.65 42.15 0.5 38.05 0.5L38.05 0.5Q31.45 0.5 27.2-4.15 22.95-8.8 22.95-17.28 22.95-25.75 27.32-30.6 31.7-35.45 38.25-35.45L38.25-35.45ZM67.05-25.9L67.05-0.8Q67.05 0.2 62.1 0.2 57.15 0.2 57.15-0.8L57.15-0.8 57.15-25.9 51.15-25.9Q50.3-25.9 49.95-28.2L49.95-28.2Q49.8-29.3 49.8-30.45 49.8-31.6 49.95-32.7L49.95-32.7Q50.3-35 51.15-35L51.15-35 72.9-35Q73.75-35 74.09-32.7L74.09-32.7Q74.25-31.6 74.25-30.45 74.25-29.3 74.09-28.2L74.09-28.2Q73.75-25.9 72.9-25.9L72.9-25.9 67.05-25.9ZM90.84 0.1L90.84 0.1Q86.29 0.1 86.29-0.9L86.29-0.9 86.29-33.3Q86.29-35 87.84-35L87.84-35 96.64-35Q104.04-35 107.32-31.95 110.59-28.9 110.59-23.1L110.59-23.1Q110.59-18.3 107.49-14.3L107.49-14.3Q105.94-12.3 102.94-11.1 99.94-9.9 95.94-9.9L95.94-9.9 95.94-0.95Q95.94-0.35 94.07-0.13 92.19 0.1 90.84 0.1ZM96.99-26.3L95.94-26.3 95.94-18.4 96.59-18.4Q98.34-18.4 99.54-19.5 100.74-20.6 100.74-22.6 100.74-24.6 99.92-25.45 99.09-26.3 96.99-26.3L96.99-26.3ZM125.69-14L125.69-0.05Q125.69 0.3 121.14 0.3L121.14 0.3Q116.59 0.2 116.59-0.1L116.59-0.1 116.59-16.7 115.24-16.7Q114.44-16.7 113.96-17.68 113.49-18.65 113.49-20.1L113.49-20.1Q113.49-25.5 116.69-25.5L116.69-25.5Q118.94-25.5 120.44-24.13 121.94-22.75 121.94-21L121.94-21Q122.99-23.05 124.76-24.28 126.54-25.5 128.39-25.5L128.39-25.5Q131.29-25.5 131.89-24L131.89-24Q132.04-23.6 132.04-22.83 132.04-22.05 131.56-20.05 131.09-18.05 130.59-17.15 130.09-16.25 129.99-16.25 129.89-16.25 129.06-16.63 128.24-17 127.59-17L127.59-17Q125.69-17 125.69-14L125.69-14ZM136.71-2.95Q133.59-6.4 133.59-12.5 133.59-18.6 136.71-22.05 139.84-25.5 145.14-25.5 150.44-25.5 153.54-22.05 156.64-18.6 156.64-12.5 156.64-6.4 153.54-2.95 150.44 0.5 145.14 0.5 139.84 0.5 136.71-2.95ZM145.16-17.15Q142.34-17.15 142.34-12.55 142.34-7.95 145.16-7.95 147.99-7.95 147.99-12.55 147.99-17.15 145.16-17.15ZM160.18-1.75L160.18-1.75 160.18-24.8Q160.18-25.1 164.71-25.1 169.23-25.1 169.23-24.85L169.23-24.85 169.23 1.8Q169.23 5.5 166.16 7.68 163.08 9.85 158.48 9.85L158.48 9.85Q152.03 9.85 152.03 5.35L152.03 5.35Q152.03 3.85 152.53 2.85L152.53 2.85Q152.98 2.9 153.78 2.9L153.78 2.9Q157.43 2.9 158.81 1.75 160.18 0.6 160.18-1.75ZM160.18-27.75L160.18-27.75 160.18-34.95Q160.18-35.45 164.71-35.45 169.23-35.45 169.23-35.15L169.23-35.15 169.23-27.8Q169.23-27.45 164.71-27.45 160.18-27.45 160.18-27.75ZM192.63-1.35L192.63-1.35Q189.48 0.5 184.53 0.5 179.58 0.5 176.18-2.88 172.78-6.25 172.78-12.23 172.78-18.2 176.06-21.85 179.33-25.5 184.33-25.5 189.33-25.5 192.06-22.95 194.78-20.4 194.78-16.75L194.78-16.75Q194.78-8.65 185.48-8.65L185.48-8.65 182.03-8.65Q182.03-7.15 182.86-6.58 183.68-6 185.28-6L185.28-6Q188.78-6 191.93-7.6L191.93-7.6Q191.98-7.65 192.38-6.9L192.38-6.9Q193.58-4.75 193.58-3.28 193.58-1.8 192.63-1.35ZM186.38-15.8L186.38-15.8Q186.38-17.9 184.33-17.9L184.33-17.9Q183.38-17.9 182.71-17.32 182.03-16.75 182.03-15.65L182.03-15.65 182.03-14.1 184.73-14.1Q186.38-14.1 186.38-15.8ZM206.23-12.4L206.23-12.4Q206.23-7.5 209.93-7.5L209.93-7.5Q212.33-7.5 213.93-8.45L213.93-8.45Q214.68-8.45 215.15-5.88 215.63-3.3 215.63-2.38 215.63-1.45 215.38-1.15L215.38-1.15Q212.73 0.5 208.13 0.5 203.53 0.5 200.3-2.93 197.08-6.35 197.08-12.28 197.08-18.2 200.25-21.85 203.43-25.5 208.7-25.5 213.98-25.5 216.03-22.95L216.03-22.95Q216.48-22.4 216.48-21.33 216.48-20.25 216.08-18.7L216.08-18.7Q215.18-15.5 213.73-15L213.73-15Q213.53-14.95 213.15-14.95 212.78-14.95 212.23-15.55L212.23-15.55Q210.28-17.5 209.1-17.5 207.93-17.5 207.08-16.3 206.23-15.1 206.23-12.4ZM230.73-18L230.73-0.3Q230.73 0.3 226.53 0.3L226.53 0.3Q221.53 0.1 221.53-0.35L221.53-0.35 221.53-18.05 218.98-18.05Q217.98-18.05 217.98-21.5L217.98-21.5Q217.98-22.4 218.15-23.7 218.33-25 218.88-25L218.88-25 221.53-25 221.53-29.4Q221.53-30.4 225.75-30.4 229.98-30.4 229.98-29.6L229.98-29.6 229.98-26.4 230.03-25 234.28-25Q235.13-25 235.13-21.5 235.13-18 234.28-18L234.28-18 230.73-18ZM282.27 0.05L282.27 0.05Q277.82 0.05 277.82-0.95L277.82-0.95 276.77-21 270.67-0.7Q270.47-0.1 267.27-0.1 264.07-0.1 263.97-0.65L263.97-0.65 257.67-21.2 256.97-1.25Q256.92-0.5 255.07-0.23 253.22 0.05 252 0.05 250.77 0.05 249.62-0.1L249.62-0.1Q247.22-0.45 247.27-1.35L247.27-1.35 248.42-33.85Q248.42-35.05 254.52-35.05L254.52-35.05Q256.32-35.05 258.92-34.77 261.52-34.5 261.82-33.7L261.82-33.7 267.42-17.95 272.32-33.75Q272.77-35.05 279.22-35.05L279.22-35.05Q281.07-35.05 283.65-34.77 286.22-34.5 286.22-33.8L286.22-33.8 287.67-1Q287.67-0.45 285.72-0.2 283.77 0.05 282.27 0.05ZM295.52-18.15L295.52-18.15Q294.12-20.65 294.12-22.23 294.12-23.8 294.97-24.25L294.97-24.25Q297.82-25.5 302.79-25.5 307.77-25.5 309.82-23.18 311.87-20.85 311.87-16.3L311.87-16.3 311.87-8.4 313.57-8.4Q314.42-8.4 314.89-7.4 315.37-6.4 315.37-4.65 315.37-2.9 314.49-1.2 313.62 0.5 312.12 0.5L312.12 0.5Q309.42 0.5 307.77-0.95L307.77-0.95Q307.02-1.55 306.62-2.4L306.62-2.4Q304.32 0.5 299.47 0.5L299.47 0.5Q295.82 0.5 293.32-2.1 290.82-4.7 290.82-8.25L290.82-8.25Q290.82-16.4 300.57-16.4L300.57-16.4 303.32-16.4 303.32-16.9Q303.32-18.2 302.89-18.57 302.47-18.95 300.92-18.95L300.92-18.95Q299.02-18.95 295.52-18.15ZM299.52-8.95L299.52-8.95Q299.52-7.85 300.12-7.28 300.72-6.7 301.64-6.7 302.57-6.7 303.32-7.45L303.32-7.45 303.32-11.3 301.92-11.3Q299.52-11.3 299.52-8.95ZM328.67-16.35L328.67-0.3Q328.67 0.05 325.07 0.05L325.07 0.05Q320.07-0.1 320.07-0.5L320.07-0.5 320.07-16.7 318.77-16.7Q317.47-16.7 317.07-18.9L317.07-18.9Q316.97-19.55 316.97-20.2L316.97-20.2Q316.97-21.75 317.57-23.3L317.57-23.3Q318.47-25.5 320.37-25.5 322.27-25.5 323.77-24.6 325.27-23.7 325.77-22.8L325.77-22.8Q328.92-25.5 333.27-25.5 337.62-25.5 339.57-23.15 341.52-20.8 341.52-15.45L341.52-15.45 341.52-0.45Q341.52 0.15 337.24 0.15 332.97 0.15 332.97-0.45L332.97-0.45 332.97-14.9Q332.97-17.4 331.22-17.4L331.22-17.4Q330.72-17.4 329.82-16.98 328.92-16.55 328.67-16.35L328.67-16.35ZM348.91-18.15L348.91-18.15Q347.51-20.65 347.51-22.23 347.51-23.8 348.36-24.25L348.36-24.25Q351.21-25.5 356.19-25.5 361.16-25.5 363.21-23.18 365.26-20.85 365.26-16.3L365.26-16.3 365.26-8.4 366.96-8.4Q367.81-8.4 368.29-7.4 368.76-6.4 368.76-4.65 368.76-2.9 367.89-1.2 367.01 0.5 365.51 0.5L365.51 0.5Q362.81 0.5 361.16-0.95L361.16-0.95Q360.41-1.55 360.01-2.4L360.01-2.4Q357.71 0.5 352.86 0.5L352.86 0.5Q349.21 0.5 346.71-2.1 344.21-4.7 344.21-8.25L344.21-8.25Q344.21-16.4 353.96-16.4L353.96-16.4 356.71-16.4 356.71-16.9Q356.71-18.2 356.29-18.57 355.86-18.95 354.31-18.95L354.31-18.95Q352.41-18.95 348.91-18.15ZM352.91-8.95L352.91-8.95Q352.91-7.85 353.51-7.28 354.11-6.7 355.04-6.7 355.96-6.7 356.71-7.45L356.71-7.45 356.71-11.3 355.31-11.3Q352.91-11.3 352.91-8.95ZM380.81 0L380.81 0Q375.96 0 373.31-3.13 370.66-6.25 370.66-12.38 370.66-18.5 374.14-21.98 377.61-25.45 383.39-25.45 389.16-25.45 392.91-22.9L392.91-22.9 392.91 2Q392.91 5.7 389.91 7.68 386.91 9.65 382.21 9.65 377.51 9.65 373.81 8.45L373.81 8.45Q373.31 7.25 373.31 6.3L373.31 6.3Q373.31 3.1 374.36 1.6L374.36 1.6Q377.71 3.05 381.51 3.05L381.51 3.05Q384.26 3.05 384.26 1.1L384.26 1.1 384.26-0.4Q382.11 0 380.81 0ZM383.11-17.3L383.11-17.3Q379.76-17.3 379.76-12.25L379.76-12.25Q379.76-9.1 381.06-8.15L381.06-8.15Q381.91-7.5 382.76-7.5 383.61-7.5 384.26-7.65L384.26-7.65 384.26-17.15Q383.66-17.3 383.11-17.3ZM416.31-1.35L416.31-1.35Q413.16 0.5 408.21 0.5 403.26 0.5 399.86-2.88 396.46-6.25 396.46-12.23 396.46-18.2 399.73-21.85 403.01-25.5 408.01-25.5 413.01-25.5 415.73-22.95 418.46-20.4 418.46-16.75L418.46-16.75Q418.46-8.65 409.16-8.65L409.16-8.65 405.71-8.65Q405.71-7.15 406.53-6.58 407.36-6 408.96-6L408.96-6Q412.46-6 415.61-7.6L415.61-7.6Q415.66-7.65 416.06-6.9L416.06-6.9Q417.26-4.75 417.26-3.28 417.26-1.8 416.31-1.35ZM410.06-15.8L410.06-15.8Q410.06-17.9 408.01-17.9L408.01-17.9Q407.06-17.9 406.38-17.32 405.71-16.75 405.71-15.65L405.71-15.65 405.71-14.1 408.41-14.1Q410.06-14.1 410.06-15.8ZM444.36-16.3L444.36-0.25Q444.36 0.1 440.08 0.1 435.81 0.1 435.81-0.35L435.81-0.35 435.81-14.9Q435.81-17.4 434.16-17.4L434.16-17.4Q433.31-17.4 431.91-16.3L431.91-16.3 431.91-0.3Q431.91 0.2 427.63 0.2 423.36 0.2 423.36-0.35L423.36-0.35 423.36-16.7 422.11-16.7Q420.46-16.7 420.46-20.15L420.46-20.15Q420.46-21.7 421.06-23.3L421.06-23.3Q421.86-25.5 423.66-25.5 425.46-25.5 427.13-24.55 428.81-23.6 429.16-22.75L429.16-22.75Q432.26-25.5 436.03-25.5 439.81-25.5 442.11-23.15L442.11-23.15Q444.81-25.5 448.61-25.5L448.61-25.5Q456.86-25.5 456.86-15.45L456.86-15.45 456.86-0.25Q456.86 0.1 452.58 0.1 448.31 0.1 448.31-0.35L448.31-0.35 448.31-14.9Q448.31-17.4 446.66-17.4L446.66-17.4Q445.76-17.4 444.36-16.3L444.36-16.3ZM480-1.35L480-1.35Q476.85 0.5 471.9 0.5 466.95 0.5 463.55-2.88 460.15-6.25 460.15-12.23 460.15-18.2 463.43-21.85 466.7-25.5 471.7-25.5 476.7-25.5 479.43-22.95 482.15-20.4 482.15-16.75L482.15-16.75Q482.15-8.65 472.85-8.65L472.85-8.65 469.4-8.65Q469.4-7.15 470.23-6.58 471.05-6 472.65-6L472.65-6Q476.15-6 479.3-7.6L479.3-7.6Q479.35-7.65 479.75-6.9L479.75-6.9Q480.95-4.75 480.95-3.28 480.95-1.8 480-1.35ZM473.75-15.8L473.75-15.8Q473.75-17.9 471.7-17.9L471.7-17.9Q470.75-17.9 470.08-17.32 469.4-16.75 469.4-15.65L469.4-15.65 469.4-14.1 472.1-14.1Q473.75-14.1 473.75-15.8ZM495.85-16.35L495.85-0.3Q495.85 0.05 492.25 0.05L492.25 0.05Q487.25-0.1 487.25-0.5L487.25-0.5 487.25-16.7 485.95-16.7Q484.65-16.7 484.25-18.9L484.25-18.9Q484.15-19.55 484.15-20.2L484.15-20.2Q484.15-21.75 484.75-23.3L484.75-23.3Q485.65-25.5 487.55-25.5 489.45-25.5 490.95-24.6 492.45-23.7 492.95-22.8L492.95-22.8Q496.1-25.5 500.45-25.5 504.8-25.5 506.75-23.15 508.7-20.8 508.7-15.45L508.7-15.45 508.7-0.45Q508.7 0.15 504.43 0.15 500.15 0.15 500.15-0.45L500.15-0.45 500.15-14.9Q500.15-17.4 498.4-17.4L498.4-17.4Q497.9-17.4 497-16.98 496.1-16.55 495.85-16.35L495.85-16.35ZM524.45-18L524.45-0.3Q524.45 0.3 520.25 0.3L520.25 0.3Q515.25 0.1 515.25-0.35L515.25-0.35 515.25-18.05 512.7-18.05Q511.7-18.05 511.7-21.5L511.7-21.5Q511.7-22.4 511.87-23.7 512.05-25 512.6-25L512.6-25 515.25-25 515.25-29.4Q515.25-30.4 519.47-30.4 523.7-30.4 523.7-29.6L523.7-29.6 523.7-26.4 523.75-25 528-25Q528.85-25 528.85-21.5 528.85-18 528-18L528-18 524.45-18Z" opacity="1" transform="matrix(1,0,0,1,0,0)" fill="#dcdcdc" class="undefined-text-1" id="text-1"/>
                </svg>
              </g>
            </svg>
          </g>
        </svg>
      </g>
    </svg>
  </g>
  <g transform="matrix(1, 0, 0, 1, 415.35831, 0)">
    <svg viewBox="0 0 96.01089644102498 95.90627844795814" height="95.90627844795814" width="96.01089644102498">
      <g>
        <svg xmlns="http://www.w3.org/2000/svg" version="1.1" x="0" y="0" viewBox="5 5 90 89.90193176269531" style="enable-background:new 0 0 100 100;" height="95.90627844795814" width="96.01089644102498" class="icon-icon-0" id="icon-0">
          <g fill="#dcdcdc">
            <path d="M95 66.9c0 3.1-2.5 5.6-5.6 5.6v6.1c3.3 1.2 5.6 4.3 5.6 7.9 0 4.7-3.8 8.4-8.4 8.4-3.7 0-6.8-2.4-7.9-5.6h-6.1c0 3.1-2.5 5.6-5.6 5.6-3.1 0-5.6-2.5-5.6-5.6h-5.6c0 3.1-2.5 5.6-5.6 5.6-3.1 0-5.6-2.5-5.6-5.6h-5.6c0 3.1-2.5 5.6-5.6 5.6-3.1 0-5.6-2.5-5.6-5.6h-6.1c-1.2 3.3-4.3 5.6-7.9 5.6C8.8 95 5 91.2 5 86.5c0-3.7 2.4-6.8 5.6-7.9v-6.1C7.5 72.5 5 70 5 66.9c0-3.1 2.5-5.6 5.6-5.6v-5.6C7.5 55.6 5 53.1 5 50c0-3.1 2.5-5.6 5.6-5.6v-5.6c-3.1 0-5.6-2.5-5.6-5.6 0-3.1 2.5-5.6 5.6-5.6v-6.1C7.4 20.2 5 17.1 5 13.5 5 8.8 8.8 5 13.5 5c3.7 0 6.8 2.4 7.9 5.6h6.1C27.5 7.5 30 5 33.1 5c3.1 0 5.6 2.5 5.6 5.6h5.6C44.4 7.5 46.9 5 50 5c3.1 0 5.6 2.5 5.6 5.6h5.6c0-3.1 2.5-5.6 5.6-5.6 3.1 0 5.6 2.5 5.6 5.6h6.1C79.8 7.4 82.9 5 86.5 5c4.7 0 8.4 3.8 8.4 8.4 0 3.7-2.4 6.8-5.6 7.9v6.1c3.1 0 5.6 2.5 5.6 5.6 0 3.1-2.5 5.6-5.6 5.6v5.6c3.1 0 5.6 2.5 5.6 5.6 0 3.1-2.5 5.6-5.6 5.6v5.6C92.5 61.2 95 63.8 95 66.9zM80.6 23.2c0-1.6-2.2-3.8-3.8-3.8H23.2c-1.6 0-3.8 2.2-3.8 3.8v53.5c0 1.6 2.2 3.8 3.8 3.8h53.5c1.6 0 3.8-2.2 3.8-3.8V23.2z" fill-rule="evenodd" clip-rule="evenodd" fill="#dcdcdc"/>
          </g>
        </svg>
      </g>
    </svg>
  </g>
</svg>
