<?xml version="1.0" encoding="utf-8"?>
<svg viewBox="0 -0.839 349.563 98.839" width="349.563px" height="98.839px" xmlns="http://www.w3.org/2000/svg">
  <g id="SvgjsG5200" featurekey="sloganFeature-0" transform="matrix(1.465798, 0, 0, 1.465798, -3.723127, 69.416939)" fill="#a5ecd7">
    <path d="M2.54 18.78 l0 -10.78 c0 -0.42 0.32 -0.64 0.64 -0.64 s0.66 0.22 0.66 0.64 l0 10.78 c0 0.86 -1.3 0.86 -1.3 0 z M12.48 7.32 c1.82 0 3.76 0.7 3.76 2.76 c0 0.48 -0.32 0.7 -0.66 0.7 s-0.7 -0.24 -0.7 -0.7 c0 -0.16 -0.1 -1.46 -2.4 -1.46 c-1.82 0 -2.62 0.72 -2.62 2.44 l0 4.82 c0 1.74 0.98 2.28 2.62 2.28 c1.66 0 2.58 -0.68 2.58 -2.3 c0 -0.46 0.34 -0.68 0.66 -0.68 c0.34 0 0.66 0.22 0.66 0.68 c0 2.7 -1.5 3.6 -3.9 3.6 c-2.6 0 -3.92 -0.96 -3.92 -3.58 l0 -4.82 c0 -2.84 1.42 -3.74 3.92 -3.74 z M20.76 7.359999999999999 l6.04 0 c0.42 0 0.62 0.34 0.62 0.68 s-0.2 0.66 -0.62 0.66 l-2.28 0 l0 10.06 c0 0.42 -0.34 0.64 -0.68 0.64 s-0.66 -0.22 -0.66 -0.64 l0 -10.06 l-2.42 0 c-0.42 0 -0.62 -0.32 -0.62 -0.66 s0.2 -0.68 0.62 -0.68 z M45.68000000000001 10.28 l0 2.5 c0 2.38 -1.24 3.14 -3.34 3.14 l-1.86 0 l0 2.84 c0 0.42 -0.34 0.64 -0.66 0.64 c-0.34 0 -0.66 -0.22 -0.66 -0.64 l0 -10.74 c0 -0.38 0.32 -0.66 0.66 -0.66 l2.7 0 c1.1 0 3.16 0.22 3.16 2.92 z M42.52000000000001 8.7 l-2.04 0 l0 5.86 l1.86 0 c0.98 0 2.04 -0.24 2.02 -1.8 l-0.02 -2.48 c0 -0.48 -0.08 -1.58 -1.82 -1.58 z M51.16000000000001 15.9 l0 2.86 c0 0.44 -0.34 0.64 -0.66 0.64 c-0.34 0 -0.66 -0.2 -0.66 -0.64 l0 -10.74 c0 -0.4 0.22 -0.66 0.66 -0.66 l2.7 0 c0.76 0 3.16 0.22 3.16 2.92 l0 2.5 c0 1.52 -0.56 2.48 -1.84 2.9 l1.36 2.74 c0.28 0.54 -0.14 0.98 -0.58 0.98 c-0.24 0 -0.54 -0.16 -0.7 -0.5 l-1.46 -3 l-1.98 0 z M55.040000000000006 12.780000000000001 l0 -2.5 c0 -0.48 -0.18 -1.58 -1.84 -1.58 l-2.04 0 l0 5.86 l1.86 0 c0.98 0 2.02 -0.22 2.02 -1.78 z M61.02000000000001 15.86 l0 -4.96 c0 -2.4 1.24 -3.68 3.64 -3.68 l0.52 0 c2.38 0 3.64 1.28 3.64 3.68 l0 4.96 c0 2.2 -1.46 3.64 -3.64 3.64 l-0.52 0 c-2.22 0 -3.64 -1.46 -3.64 -3.64 z M64.66000000000001 18.16 l0.52 0 c1.44 0 2.3 -0.9 2.3 -2.3 l0 -4.96 c0 -1.56 -0.76 -2.36 -2.3 -2.36 l-0.52 0 c-1.52 0 -2.36 0.82 -2.36 2.36 l0 4.96 c0 1.46 0.92 2.3 2.36 2.3 z M73.82000000000001 16.94 c0.38 0.68 0.82 1.22 1.86 1.22 c1.4 0 1.88 -1.32 1.88 -2.66 l0 -7.5 c0 -0.44 0.32 -0.64 0.64 -0.64 c0.34 0 0.7 0.22 0.7 0.64 l0 7.5 c0 2.46 -1.18 4 -3.22 4 c-1.68 0 -2.44 -0.92 -2.98 -1.88 c-0.48 -0.84 0.7 -1.42 1.12 -0.68 z M83.76000000000002 18.7 l0 -10.64 c0 -0.46 0.36 -0.7 0.7 -0.7 l4.6 0 c0.44 0 0.66 0.32 0.66 0.66 s-0.22 0.68 -0.66 0.68 l-3.96 0 l0 3.88 l3.14 0 c0.46 0 0.68 0.32 0.68 0.66 s-0.24 0.7 -0.68 0.7 l-3.14 0 l0 4.14 l3.96 0 c0.42 0 0.64 0.34 0.64 0.66 c0 0.34 -0.22 0.66 -0.64 0.66 l-4.6 0 c-0.34 0 -0.7 -0.12 -0.7 -0.7 z M97.96000000000001 7.32 c1.82 0 3.76 0.7 3.76 2.76 c0 0.48 -0.32 0.7 -0.66 0.7 s-0.7 -0.24 -0.7 -0.7 c0 -0.16 -0.1 -1.46 -2.4 -1.46 c-1.82 0 -2.62 0.72 -2.62 2.44 l0 4.82 c0 1.74 0.98 2.28 2.62 2.28 c1.66 0 2.58 -0.68 2.58 -2.3 c0 -0.46 0.34 -0.68 0.66 -0.68 c0.34 0 0.66 0.22 0.66 0.68 c0 2.7 -1.5 3.6 -3.9 3.6 c-2.6 0 -3.92 -0.96 -3.92 -3.58 l0 -4.82 c0 -2.84 1.42 -3.74 3.92 -3.74 z M106.24000000000002 7.359999999999999 l6.04 0 c0.42 0 0.62 0.34 0.62 0.68 s-0.2 0.66 -0.62 0.66 l-2.28 0 l0 10.06 c0 0.42 -0.34 0.64 -0.68 0.64 s-0.66 -0.22 -0.66 -0.64 l0 -10.06 l-2.42 0 c-0.42 0 -0.62 -0.32 -0.62 -0.66 s0.2 -0.68 0.62 -0.68 z M133.22000000000003 18.76 l0 -8.92 l-3.18 9 c-0.18 0.5 -0.84 0.62 -1.04 0 l-3.08 -9 l0 8.92 c0 0.42 -0.32 0.64 -0.66 0.64 s-0.68 -0.22 -0.68 -0.64 l0 -10.74 c0 -0.38 0.28 -0.66 0.68 -0.66 l0.64 0 c0.44 0 0.68 0.32 0.78 0.62 c0.96 2.86 1.84 5.4 2.82 8.28 l2.9 -8.34 c0.1 -0.28 0.28 -0.56 0.7 -0.56 l0.8 0 c0.58 0 0.66 0.32 0.66 0.64 l0 10.76 c0 0.42 -0.34 0.64 -0.68 0.64 s-0.66 -0.22 -0.66 -0.64 z  M145.46000000000004 18.86 l-0.78 -2.54 l-3.72 0 l-0.74 2.5 c-0.26 0.86 -1.58 0.6 -1.3 -0.28 c1.04 -3.5 2.06 -7.06 3.08 -10.6 c0.12 -0.38 0.44 -0.58 0.76 -0.58 c0.3 0 0.62 0.2 0.74 0.58 l3.18 10.6 c0.22 0.76 -0.96 1.18 -1.22 0.32 z M142.80000000000004 10.06 l-1.44 4.92 l2.94 0 c-0.5 -1.68 -0.96 -3.12 -1.5 -4.92 z M157.90000000000003 8 l0 10.76 c0 0.42 -0.32 0.64 -0.64 0.64 c-0.24 0 -0.56 -0.18 -0.7 -0.44 c-1.5 -2.94 -2.62 -5.2 -4.12 -8.16 l0 7.96 c0 0.42 -0.32 0.64 -0.66 0.64 c-0.32 0 -0.66 -0.22 -0.66 -0.64 l0 -10.76 c0 -0.7 1 -0.74 1.22 -0.32 l4.22 8.34 l0 -8.02 c0 -0.42 0.32 -0.64 0.66 -0.64 s0.68 0.22 0.68 0.64 z M168.86000000000004 18.86 l-0.78 -2.54 l-3.72 0 l-0.74 2.5 c-0.26 0.86 -1.58 0.6 -1.3 -0.28 c1.04 -3.5 2.06 -7.06 3.08 -10.6 c0.12 -0.38 0.44 -0.58 0.76 -0.58 c0.3 0 0.62 0.2 0.74 0.58 l3.18 10.6 c0.22 0.76 -0.96 1.18 -1.22 0.32 z M166.20000000000005 10.06 l-1.44 4.92 l2.94 0 c-0.5 -1.68 -0.96 -3.12 -1.5 -4.92 z M174.28000000000006 15.879999999999999 l0 -4.82 c0 -2.88 1.58 -3.74 3.9 -3.74 c1.92 0 3.78 0.98 3.78 3 c0 0.44 -0.32 0.66 -0.66 0.66 s-0.68 -0.22 -0.68 -0.66 c0 -1.02 -1.12 -1.7 -2.44 -1.7 c-1.82 0 -2.58 0.74 -2.58 2.44 l0 4.82 c0 1.74 0.96 2.28 2.58 2.28 c1.92 0 2.6 -0.92 2.6 -2.7 l0 -0.84 l-1.8 0 c-0.42 0 -0.64 -0.32 -0.64 -0.66 s0.22 -0.68 0.64 -0.68 l2.5 0 c0.4 0 0.62 0.4 0.62 0.68 l0 1.5 c0 2.88 -1.12 4 -3.92 4 c-2.64 0 -3.9 -0.96 -3.9 -3.58 z M186.78000000000006 18.7 l0 -10.64 c0 -0.46 0.36 -0.7 0.7 -0.7 l4.6 0 c0.44 0 0.66 0.32 0.66 0.66 s-0.22 0.68 -0.66 0.68 l-3.96 0 l0 3.88 l3.14 0 c0.46 0 0.68 0.32 0.68 0.66 s-0.24 0.7 -0.68 0.7 l-3.14 0 l0 4.14 l3.96 0 c0.42 0 0.64 0.34 0.64 0.66 c0 0.34 -0.22 0.66 -0.64 0.66 l-4.6 0 c-0.34 0 -0.7 -0.12 -0.7 -0.7 z M205.94000000000005 18.76 l0 -8.92 l-3.18 9 c-0.18 0.5 -0.84 0.62 -1.04 0 l-3.08 -9 l0 8.92 c0 0.42 -0.32 0.64 -0.66 0.64 s-0.68 -0.22 -0.68 -0.64 l0 -10.74 c0 -0.38 0.28 -0.66 0.68 -0.66 l0.64 0 c0.44 0 0.68 0.32 0.78 0.62 c0.96 2.86 1.84 5.4 2.82 8.28 l2.9 -8.34 c0.1 -0.28 0.28 -0.56 0.7 -0.56 l0.8 0 c0.58 0 0.66 0.32 0.66 0.64 l0 10.76 c0 0.42 -0.34 0.64 -0.68 0.64 s-0.66 -0.22 -0.66 -0.64 z  M212.28000000000006 18.7 l0 -10.64 c0 -0.46 0.36 -0.7 0.7 -0.7 l4.6 0 c0.44 0 0.66 0.32 0.66 0.66 s-0.22 0.68 -0.66 0.68 l-3.96 0 l0 3.88 l3.14 0 c0.46 0 0.68 0.32 0.68 0.66 s-0.24 0.7 -0.68 0.7 l-3.14 0 l0 4.14 l3.96 0 c0.42 0 0.64 0.34 0.64 0.66 c0 0.34 -0.22 0.66 -0.64 0.66 l-4.6 0 c-0.34 0 -0.7 -0.12 -0.7 -0.7 z M229.62000000000006 8 l0 10.76 c0 0.42 -0.32 0.64 -0.64 0.64 c-0.24 0 -0.56 -0.18 -0.7 -0.44 c-1.5 -2.94 -2.62 -5.2 -4.12 -8.16 l0 7.96 c0 0.42 -0.32 0.64 -0.66 0.64 c-0.32 0 -0.66 -0.22 -0.66 -0.64 l0 -10.76 c0 -0.7 1 -0.74 1.22 -0.32 l4.22 8.34 l0 -8.02 c0 -0.42 0.32 -0.64 0.66 -0.64 s0.68 0.22 0.68 0.64 z M234.36000000000007 7.359999999999999 l6.04 0 c0.42 0 0.62 0.34 0.62 0.68 s-0.2 0.66 -0.62 0.66 l-2.28 0 l0 10.06 c0 0.42 -0.34 0.64 -0.68 0.64 s-0.66 -0.22 -0.66 -0.64 l0 -10.06 l-2.42 0 c-0.42 0 -0.62 -0.32 -0.62 -0.66 s0.2 -0.68 0.62 -0.68 z"/>
  </g>
  <g id="SvgjsG5201" featurekey="nameLeftFeature-0" transform="matrix(1.097561, 0, 0, 1.097561, 14.243903, 6.658538)" fill="#ffffff">
    <path d="M1.6 23.16 c0 -11.16 0 -15.56 5.6 -15.56 c4.12 0 5.24 2.52 5.52 8.56 l-3.72 0 c-0.16 -4.36 -0.6 -5.36 -1.8 -5.36 c-1.84 0 -1.84 1.96 -1.84 12.36 c0 11.56 0 13.24 1.84 13.24 c1.32 0 1.72 -1 1.8 -6.16 l3.76 0 c-0.24 7.4 -1.24 10.16 -5.56 10.16 c-5.6 0 -5.6 -4.44 -5.6 -17.24 z M15.16 23.16 c0 -11.16 0.24 -15.56 6.24 -15.56 s6.24 4.4 6.24 15.56 c0 12.8 -0.24 17.24 -6.24 17.24 s-6.24 -4.44 -6.24 -17.24 z M19.16 23.16 c0 11.56 0 13.24 2.24 13.24 s2.24 -1.68 2.24 -13.24 c0 -10.4 0 -12.36 -2.24 -12.36 s-2.24 1.96 -2.24 12.36 z M31.240000000000002 40 l0 -32 l3.6 0 l5.24 19.6 l-0.04 -0.4 l0 -19.2 l4 0 l0 32 l-3.6 0 l-5.24 -17.6 l0.04 0.4 l0 17.2 l-4 0 z M47.64000000000001 23.16 c0 -11.16 0 -15.56 5.6 -15.56 c4.12 0 5.24 2.52 5.52 8.56 l-3.72 0 c-0.16 -4.36 -0.6 -5.36 -1.8 -5.36 c-1.84 0 -1.84 1.96 -1.84 12.36 c0 11.56 0 13.24 1.84 13.24 c1.32 0 1.72 -1 1.8 -6.16 l3.76 0 c-0.24 7.4 -1.24 10.16 -5.56 10.16 c-5.6 0 -5.6 -4.44 -5.6 -17.24 z M61.60000000000001 40 l0 -32 l9.2 0 l0 3.2 l-5.2 0 l0 10.4 l4.4 0 l0 3.2 l-4.4 0 l0 11.2 l5.2 0 l0 4 l-9.2 0 z M73.60000000000001 40 l0 -32 l6.48 0 c4.12 0 5.2 2.52 5.52 8.56 l0 1.28 c-0.32 6.04 -1.4 8.56 -5.52 8.56 l-2.48 0 l0 13.6 l-4 0 z M77.60000000000001 23.2 l2.48 0 c1.2 0 1.64 -1 1.8 -5.36 l0 -1.28 c-0.16 -4.36 -0.6 -5.36 -1.8 -5.36 l-2.48 0 l0 12 z M86.80000000000001 11.600000000000001 l0 -3.6 l12 0 l0 3.6 l-4 0 l0 28.4 l-4 0 l0 -28.4 l-4 0 z"/>
  </g>
  <g id="SvgjsG5202" featurekey="inlineSymbolFeature-0" transform="matrix(0.81, 0, 0, 0.81, 134.899995, -8.1)" fill="#a5ecd7">
    <circle xmlns="http://www.w3.org/2000/svg" stroke="#a5ecd7" stroke-width="2" stroke-linecap="round" stroke-linejoin="round" stroke-miterlimit="10" cx="18" cy="18" r="8"/>
    <circle xmlns="http://www.w3.org/2000/svg" stroke="#a5ecd7" stroke-width="2" stroke-linecap="round" stroke-linejoin="round" stroke-miterlimit="10" cx="34" cy="18" r="3"/>
    <circle xmlns="http://www.w3.org/2000/svg" stroke="#a5ecd7" stroke-width="2" stroke-linecap="round" stroke-linejoin="round" stroke-miterlimit="10" cx="50" cy="18" r="5.5"/>
    <circle xmlns="http://www.w3.org/2000/svg" stroke="#a5ecd7" stroke-width="2" stroke-linecap="round" stroke-linejoin="round" stroke-miterlimit="10" cx="66.001" cy="18" r="3"/>
    <path xmlns="http://www.w3.org/2000/svg" stroke="#a5ecd7" stroke-width="2" stroke-linecap="round" stroke-linejoin="round" stroke-miterlimit="10" d="M90,18  c0,4.42-3.579,8.003-8,8.003c-4.417,0-7.999-3.583-7.999-8.003c0-4.417,3.582-8,7.999-8C86.421,10,90,13.583,90,18z"/>
    <path xmlns="http://www.w3.org/2000/svg" stroke="#a5ecd7" stroke-width="2" stroke-linecap="round" stroke-linejoin="round" stroke-miterlimit="10" d="M39.5,34.002  c0,3.035-2.463,5.498-5.501,5.498c-3.036,0-5.499-2.463-5.499-5.498c0-3.04,2.463-5.502,5.499-5.502  C37.038,28.5,39.5,30.962,39.5,34.002z"/>
    <circle xmlns="http://www.w3.org/2000/svg" stroke="#a5ecd7" stroke-width="2" stroke-linecap="round" stroke-linejoin="round" stroke-miterlimit="10" cx="50" cy="34" r="2.999"/>
    <path xmlns="http://www.w3.org/2000/svg" stroke="#a5ecd7" stroke-width="2" stroke-linecap="round" stroke-linejoin="round" stroke-miterlimit="10" d="M71.499,34.002  c0,3.035-2.459,5.498-5.498,5.498c-3.038,0-5.503-2.463-5.503-5.498c0-3.04,2.465-5.502,5.503-5.502  C69.04,28.5,71.499,30.962,71.499,34.002z"/>
    <circle xmlns="http://www.w3.org/2000/svg" stroke="#a5ecd7" stroke-width="2" stroke-linecap="round" stroke-linejoin="round" stroke-miterlimit="10" cx="34" cy="50.001" r="3"/>
    <circle xmlns="http://www.w3.org/2000/svg" stroke="#a5ecd7" stroke-width="2" stroke-linecap="round" stroke-linejoin="round" stroke-miterlimit="10" cx="50" cy="50.001" r="8.001"/>
    <circle xmlns="http://www.w3.org/2000/svg" stroke="#a5ecd7" stroke-width="2" stroke-linecap="round" stroke-linejoin="round" stroke-miterlimit="10" cx="66.001" cy="50.001" r="3"/>
    <path xmlns="http://www.w3.org/2000/svg" stroke="#a5ecd7" stroke-width="2" stroke-linecap="round" stroke-linejoin="round" stroke-miterlimit="10" d="M39.5,66.002  c0,3.035-2.463,5.498-5.501,5.498c-3.036,0-5.499-2.463-5.499-5.498c0-3.041,2.463-5.502,5.499-5.502  C37.038,60.5,39.5,62.961,39.5,66.002z"/>
    <circle xmlns="http://www.w3.org/2000/svg" stroke="#a5ecd7" stroke-width="2" stroke-linecap="round" stroke-linejoin="round" stroke-miterlimit="10" cx="49.999" cy="66" r="3"/>
    <path xmlns="http://www.w3.org/2000/svg" stroke="#a5ecd7" stroke-width="2" stroke-linecap="round" stroke-linejoin="round" stroke-miterlimit="10" d="M71.499,66.002  c0,3.035-2.459,5.498-5.498,5.498c-3.038,0-5.503-2.463-5.503-5.498c0-3.041,2.465-5.502,5.503-5.502  C69.04,60.5,71.499,62.961,71.499,66.002z"/>
    <path xmlns="http://www.w3.org/2000/svg" stroke="#a5ecd7" stroke-width="2" stroke-linecap="round" stroke-linejoin="round" stroke-miterlimit="10" d="M26,82  c0,4.416-3.583,7.998-8.001,7.998C13.579,89.998,10,86.416,10,82c0-4.422,3.579-7.998,7.999-7.998C22.418,74.002,26,77.578,26,82z"/>
    <circle xmlns="http://www.w3.org/2000/svg" stroke="#a5ecd7" stroke-width="2" stroke-linecap="round" stroke-linejoin="round" stroke-miterlimit="10" cx="34" cy="82" r="3"/>
    <circle xmlns="http://www.w3.org/2000/svg" stroke="#a5ecd7" stroke-width="2" stroke-linecap="round" stroke-linejoin="round" stroke-miterlimit="10" cx="50" cy="82" r="5.5"/>
    <circle xmlns="http://www.w3.org/2000/svg" stroke="#a5ecd7" stroke-width="2" stroke-linecap="round" stroke-linejoin="round" stroke-miterlimit="10" cx="66" cy="82" r="2.999"/>
    <circle xmlns="http://www.w3.org/2000/svg" stroke="#a5ecd7" stroke-width="2" stroke-linecap="round" stroke-linejoin="round" stroke-miterlimit="10" cx="17.999" cy="66" r="3"/>
    <path xmlns="http://www.w3.org/2000/svg" stroke="#a5ecd7" stroke-width="2" stroke-linecap="round" stroke-linejoin="round" stroke-miterlimit="10" d="M17.999,44.501  c3.039,0,5.5,2.46,5.5,5.5c0,3.036-2.462,5.499-5.5,5.499c-3.037,0-5.498-2.463-5.498-5.499  C12.501,46.961,14.962,44.501,17.999,44.501z"/>
    <circle xmlns="http://www.w3.org/2000/svg" stroke="#a5ecd7" stroke-width="2" stroke-linecap="round" stroke-linejoin="round" stroke-miterlimit="10" cx="17.999" cy="34.001" r="3"/>
    <circle xmlns="http://www.w3.org/2000/svg" stroke="#a5ecd7" stroke-width="2" stroke-linecap="round" stroke-linejoin="round" stroke-miterlimit="10" cx="82" cy="66" r="3"/>
    <path xmlns="http://www.w3.org/2000/svg" stroke="#a5ecd7" stroke-width="2" stroke-linecap="round" stroke-linejoin="round" stroke-miterlimit="10" d="M82,44.503  c3.039,0,5.503,2.46,5.503,5.498c0,3.036-2.464,5.499-5.503,5.499c-3.035,0-5.498-2.463-5.498-5.499  C76.502,46.963,78.965,44.503,82,44.503z"/>
    <circle xmlns="http://www.w3.org/2000/svg" stroke="#a5ecd7" stroke-width="2" stroke-linecap="round" stroke-linejoin="round" stroke-miterlimit="10" cx="82" cy="34.001" r="2.999"/>
    <path xmlns="http://www.w3.org/2000/svg" stroke="#a5ecd7" stroke-width="2" stroke-linecap="round" stroke-linejoin="round" stroke-miterlimit="10" d="M90,82  c0,4.416-3.579,8-8,8c-4.417,0-7.999-3.584-7.999-8c0-4.422,3.582-8,7.999-8C86.421,74,90,77.578,90,82z"/>
  </g>
  <g id="SvgjsG5203" featurekey="nameRightFeature-0" transform="matrix(1.097561, 0, 0, 1.097561, 216.146349, 6.658538)" fill="#ffffff">
    <path d="M10.8 40 l0 -32 l6.48 0 c4.12 0 5.2 2.52 5.52 8.56 l0 1.28 c-0.32 6.04 -1.4 8.56 -5.52 8.56 l-2.48 0 l0 13.6 l-4 0 z M14.8 23.2 l2.48 0 c1.2 0 1.64 -1 1.8 -5.36 l0 -1.28 c-0.16 -4.36 -0.6 -5.36 -1.8 -5.36 l-2.48 0 l0 12 z M25.6 40 l0 -16.8 c0 -11.16 0 -15.56 6 -15.56 s6 4.4 6 15.56 l0 16.8 l-4 0 l0 -9.2 l-4 0 l0 9.2 l-4 0 z M29.6 27.6 l4 0 l0 -4.4 c0 -10.4 0 -12.36 -2 -12.36 s-2 1.96 -2 12.36 l0 4.4 z M40 11.600000000000001 l0 -3.6 l12 0 l0 3.6 l-4 0 l0 28.4 l-4 0 l0 -28.4 l-4 0 z M54.00000000000001 23.16 c0 -11.16 0 -15.56 5.6 -15.56 c4.12 0 5.24 2.52 5.52 8.56 l-3.72 0 c-0.16 -4.36 -0.6 -5.36 -1.8 -5.36 c-1.84 0 -1.84 1.96 -1.84 12.36 c0 11.56 0 13.24 1.84 13.24 c1.32 0 1.72 -1 1.8 -6.16 l3.76 0 c-0.24 7.4 -1.24 10.16 -5.56 10.16 c-5.6 0 -5.6 -4.44 -5.6 -17.24 z M67.96000000000001 40 l0 -32 l4 0 l0 13.6 l4 0 l0 -13.6 l4 0 l0 32 l-4 0 l0 -15.2 l-4 0 l0 15.2 l-4 0 z M83.96000000000001 40 l0 -32 l9.2 0 l0 3.2 l-5.2 0 l0 10.4 l4.4 0 l0 3.2 l-4.4 0 l0 11.2 l5.2 0 l0 4 l-9.2 0 z M95.16000000000001 30.240000000000002 l4.04 0 c0.08 5.16 0.48 6.16 1.92 6.16 c1.96 0 1.96 -1.64 1.96 -6 c0 -6.4 -7.92 -4.68 -7.92 -13.2 c0 -5 0 -9.6 6 -9.6 c4.44 0 5.64 2.52 5.92 8.56 l-4 0 c-0.16 -4.36 -0.64 -5.36 -1.92 -5.36 c-1.96 0 -1.96 2.16 -1.96 6.4 c0 6.2 7.96 4 7.96 13.2 c0 5.6 0 10 -6.04 10 c-4.64 0 -5.72 -2.76 -5.96 -10.16 z"/>
  </g>
</svg>