<?xml version="1.0" encoding="utf-8"?>
<svg viewBox="122.374 158.259 395.386 83.481" width="395.386px" height="83.481px" xmlns="http://www.w3.org/2000/svg">
  <rect width="3.181460239090526" height="80.8331586379854" x="403.84842994526315" y="15.161244182348518" fill="#ff4057" opacity="1" stroke-width="0" stroke="transparent" fill-opacity="1" class="rect-o-0" data-fill-palette-color="primary" rx="1%" id="o-0" data-palette-color="#ff4057" transform="matrix(0.751032, 0, 0, 0.751032, 122.240004, 158.259263)"/>
  <path d="M18.6-3.03L18.82-3.03Q22.8-3.03 26.83-4.57L26.83-4.57 27.91-1.2Q26.05-0.27 23.44 0.11 20.83 0.49 18.82 0.49L18.82 0.49 18.48 0.49Q9.79 0.49 6.84-4.49L6.84-4.49Q5.03-7.52 4.64-12.65L4.64-12.65Q4.47-15.11 4.47-18.04 4.47-20.97 4.63-23.62 4.79-26.27 5.27-28.48 5.76-30.69 6.69-32.42 7.62-34.16 9.18-35.35L9.18-35.35Q12.35-37.84 18.41-37.84L18.41-37.84Q22.31-37.84 24.69-37.34 27.08-36.84 27.91-36.52L27.91-36.52 26.81-32.67Q22.05-34.33 18.66-34.33 15.28-34.33 13.46-33.51 11.65-32.69 10.62-30.81L10.62-30.81Q8.84-27.59 8.84-18.53L8.84-18.53 8.84-16.72Q8.84-9.28 10.77-6.32L10.77-6.32Q12.92-3.03 18.6-3.03L18.6-3.03ZM48.7 0.49L47.19 0.49Q38.5 0.49 35.72-4.98L35.72-4.98Q34.08-8.15 33.79-13.45L33.79-13.45Q33.66-15.94 33.66-18.87 33.66-21.8 33.84-24.43 34.01-27.05 34.51-29.17 35.01-31.3 35.92-32.92 36.84-34.55 38.33-35.64L38.33-35.64Q41.4-37.84 47.19-37.84L47.19-37.84 48.7-37.84Q57.76-37.84 60.3-32.96L60.3-32.96Q61.89-29.91 62.08-24.46L62.08-24.46Q62.18-21.8 62.18-18.84 62.18-15.87 62.03-13.37 61.89-10.86 61.42-8.74 60.96-6.62 60.07-4.91 59.18-3.2 57.66-2L57.66-2Q54.54 0.49 48.7 0.49L48.7 0.49ZM47.19-3.03L48.65-3.03Q51.34-3.03 53.11-3.61 54.88-4.2 55.91-5.66L55.91-5.66Q57.81-8.37 57.81-16.06L57.81-16.06 57.81-18.7Q57.81-22.39 57.61-25.27 57.42-28.15 56.56-30.13L56.56-30.13Q54.81-34.23 48.95-34.23L48.95-34.23 46.9-34.23Q40.94-34.23 39.28-30.4L39.28-30.4Q38.23-27.95 38.13-24.63 38.03-21.31 38.03-18.7L38.03-18.7 38.03-16.06Q38.03-8.86 40.18-5.91L40.18-5.91Q42.26-3.03 47.19-3.03L47.19-3.03ZM72.36 0L72.36-37.35 75.65-37.35 92.84-10.21 95.06-5.59 94.53-10.72 94.53-37.35 98.31-37.35 98.31 0 94.82 0 77.75-27.08 75.61-31.27 76.14-26.29 76.14 0 72.36 0ZM122.7-3.03L122.92-3.03Q126.9-3.03 130.93-4.57L130.93-4.57 132-1.2Q130.14-0.27 127.53 0.11 124.92 0.49 122.92 0.49L122.92 0.49 122.58 0.49Q113.88 0.49 110.93-4.49L110.93-4.49Q109.12-7.52 108.73-12.65L108.73-12.65Q108.56-15.11 108.56-18.04 108.56-20.97 108.72-23.62 108.88-26.27 109.37-28.48 109.86-30.69 110.78-32.42 111.71-34.16 113.27-35.35L113.27-35.35Q116.45-37.84 122.5-37.84L122.5-37.84Q126.41-37.84 128.79-37.34 131.17-36.84 132-36.52L132-36.52 130.9-32.67Q126.14-34.33 122.76-34.33 119.38-34.33 117.56-33.51 115.74-32.69 114.71-30.81L114.71-30.81Q112.93-27.59 112.93-18.53L112.93-18.53 112.93-16.72Q112.93-9.28 114.86-6.32L114.86-6.32Q117.01-3.03 122.7-3.03L122.7-3.03ZM139 0L139-37.35 160.17-37.35 160.17-33.74 143.15-33.74 143.15-20.85 156.87-20.85 156.87-17.26 143.15-17.26 143.15-3.59 160.83-3.59 160.83 0 139 0ZM182.75-11.72L182.75-11.72Q181.75-11.67 179.25-11.67 176.75-11.67 172.33-12.33L172.33-12.33 172.33 0 168.18 0 168.18-37.21Q175.28-37.87 182.31-37.87L182.31-37.87Q188.22-37.87 190.59-35.21L190.59-35.21Q192.59-32.96 192.59-27.78L192.59-27.78 192.59-24.9Q192.59-20.9 191.71-18.07L191.71-18.07Q189.83-12.16 182.75-11.72ZM182.48-34.35L182.48-34.35Q175.79-34.35 172.33-34.08L172.33-34.08 172.33-15.77Q176.6-15.21 179.93-15.21 183.26-15.21 184.72-15.69 186.17-16.16 186.97-17.29L186.97-17.29Q188.34-19.19 188.34-24.85L188.34-24.85 188.34-27.88Q188.34-31.37 186.97-32.86L186.97-32.86Q185.66-34.35 182.48-34.35ZM205.97 0L205.97-33.74 196.01-33.74 196.01-37.35 220.42-37.35 220.42-33.74 210.12-33.74 210.12 0 205.97 0Z" fill="#ff4057" data-fill-palette-color="primary" transform="matrix(0.690703, 0, 0, 0.690703, 119.286094, 195.953776)"/>
  <path d="M240.76-11.72L240.76-11.72Q239.76-11.67 237.25-11.67 234.75-11.67 230.33-12.33L230.33-12.33 230.33 0 226.18 0 226.18-37.21Q233.29-37.87 240.32-37.87L240.32-37.87Q246.23-37.87 248.59-35.21L248.59-35.21Q250.6-32.96 250.6-27.78L250.6-27.78 250.6-24.9Q250.6-20.9 249.72-18.07L249.72-18.07Q247.84-12.16 240.76-11.72ZM240.49-34.35L240.49-34.35Q233.8-34.35 230.33-34.08L230.33-34.08 230.33-15.77Q234.6-15.21 237.94-15.21 241.27-15.21 242.72-15.69 244.17-16.16 244.98-17.29L244.98-17.29Q246.35-19.19 246.35-24.85L246.35-24.85 246.35-27.88Q246.35-31.37 244.98-32.86L244.98-32.86Q243.66-34.35 240.49-34.35ZM254.91 0L267.15-37.35 272.83-37.35 285.9 0 281.48 0 277.77-10.96 262.73-10.96 259.21 0 254.91 0ZM263.85-14.45L276.59-14.45 270-34.06 269.25-31.27 263.85-14.45ZM297.27 0L297.27-33.74 287.31-33.74 287.31-37.35 311.72-37.35 311.72-33.74 301.42-33.74 301.42 0 297.27 0ZM330.62-3.03L330.84-3.03Q334.82-3.03 338.85-4.57L338.85-4.57 339.92-1.2Q338.06-0.27 335.45 0.11 332.84 0.49 330.84 0.49L330.84 0.49 330.5 0.49Q321.8 0.49 318.85-4.49L318.85-4.49Q317.04-7.52 316.65-12.65L316.65-12.65Q316.48-15.11 316.48-18.04 316.48-20.97 316.64-23.62 316.8-26.27 317.29-28.48 317.78-30.69 318.7-32.42 319.63-34.16 321.19-35.35L321.19-35.35Q324.37-37.84 330.42-37.84L330.42-37.84Q334.33-37.84 336.71-37.34 339.09-36.84 339.92-36.52L339.92-36.52 338.82-32.67Q334.06-34.33 330.68-34.33 327.3-34.33 325.48-33.51 323.66-32.69 322.63-30.81L322.63-30.81Q320.85-27.59 320.85-18.53L320.85-18.53 320.85-16.72Q320.85-9.28 322.78-6.32L322.78-6.32Q324.93-3.03 330.62-3.03L330.62-3.03ZM346.92 0L346.92-37.35 351.07-37.35 351.07-20.48 368.73-20.48 368.73-37.35 372.85-37.35 372.85 0 368.73 0 368.73-16.94 351.07-16.94 351.07 0 346.92 0ZM384.37 0L384.37-37.35 405.54-37.35 405.54-33.74 388.52-33.74 388.52-20.85 402.24-20.85 402.24-17.26 388.52-17.26 388.52-3.59 406.2-3.59 406.2 0 384.37 0ZM409.86-2.47L411.47-5.88Q417.01-2.95 422.31-2.95L422.31-2.95Q428.46-2.95 429.51-6.88L429.51-6.88Q429.85-8.18 429.85-9.86L429.85-9.86 429.85-10.82Q429.85-12.52 429.61-13.57 429.36-14.62 428.58-15.28L428.58-15.28Q427.31-16.38 422.58-17.11L422.58-17.11Q418.35-17.77 416.74-18.36 415.13-18.95 414.09-19.64 413.06-20.34 412.32-21.39L412.32-21.39Q410.81-23.58 410.81-27.47L410.81-27.47 410.81-27.71Q410.81-35.77 417.5-37.35L417.5-37.35Q419.62-37.84 422.31-37.84L422.31-37.84 422.63-37.84Q428.9-37.84 432.88-36.04L432.88-36.04 431.61-32.3Q426.8-34.38 422.75-34.38L422.75-34.38 422.53-34.38Q418.06-34.38 416.38-32.69L416.38-32.69Q414.96-31.27 414.96-27.78L414.96-27.78 414.96-27.69Q414.96-23.71 417.16-22.46L417.16-22.46Q418.65-21.66 422.49-21.04 426.34-20.43 428.22-20.01 430.1-19.58 431.42-18.6L431.42-18.6Q434.15-16.55 434.15-10.82L434.15-10.82 434.15-10.5Q434.15-1.73 427.09-0.05L427.09-0.05Q424.92 0.49 422.99 0.49 421.06 0.49 419.49 0.35 417.91 0.22 416.28-0.12L416.28-0.12Q412.45-0.9 409.86-2.47L409.86-2.47Z" fill="#dcdcdc" data-fill-palette-color="secondary" transform="matrix(0.690703, 0, 0, 0.690703, 119.286094, 195.953776)"/>
  <path d="M3.8-12.2L3.8-12.2Q4.75-11.45 7.08-10.15 9.4-8.85 11.53-8.85 13.65-8.85 13.65-10.5L13.65-10.5Q13.65-11.25 13.05-11.83 12.45-12.4 10.85-13.15 9.25-13.9 8.45-14.33 7.65-14.75 6.33-15.73 5-16.7 4.3-17.75L4.3-17.75Q2.3-20.6 2.3-25 2.3-29.4 5.58-32.43 8.85-35.45 14.15-35.45L14.15-35.45Q17.75-35.45 20.8-34.68 23.85-33.9 23.95-32.65L23.95-32.65Q23.95-32.5 23.95-32.35L23.95-32.35Q23.95-30.6 22.85-27.93 21.75-25.25 21.3-24.95L21.3-24.95Q18.1-26.6 15.58-26.6 13.05-26.6 13.05-24.8L13.05-24.8Q13.05-23.7 14.9-22.85L14.9-22.85Q15.3-22.65 16.05-22.3 16.8-21.95 17.78-21.48 18.75-21 19.88-20.28 21-19.55 22.3-18.35L22.3-18.35Q24.95-15.85 24.95-11.75L24.95-11.75Q24.95-6.4 22-3 19.05 0.4 12.9 0.5L12.9 0.5Q9.9 0.5 7.48 0 5.05-0.5 3.25-1.95 1.45-3.4 1.45-5.45 1.45-7.5 2.2-9.53 2.95-11.55 3.8-12.2ZM30.97-2.95Q27.85-6.4 27.85-12.5 27.85-18.6 30.97-22.05 34.1-25.5 39.4-25.5 44.7-25.5 47.8-22.05 50.9-18.6 50.9-12.5 50.9-6.4 47.8-2.95 44.7 0.5 39.4 0.5 34.1 0.5 30.97-2.95ZM39.42-17.15Q36.6-17.15 36.6-12.55 36.6-7.95 39.42-7.95 42.25-7.95 42.25-12.55 42.25-17.15 39.42-17.15ZM56.4-0.6L56.4-18.35 53.95-18.35Q53.2-18.35 53.2-21.68 53.2-25 53.95-25L53.95-25 56.4-25 56.4-26.1Q56.4-31.4 58.62-33.43 60.85-35.45 64.85-35.45 68.85-35.45 71.9-34L71.9-34Q72.3-33.85 72.3-32.93 72.3-32 71.45-29.95 70.6-27.9 70-27.6L70-27.6Q68.3-28.65 66.5-28.65L66.5-28.65Q64.55-28.65 64.55-26.05L64.55-26.05 64.55-25 68.7-25Q69.6-25 69.6-21.8L69.6-21.8Q69.6-18.3 68.45-18.3L68.45-18.3 65.25-18.3 65.25-0.6Q65.25 0 60.82 0 56.4 0 56.4-0.6L56.4-0.6ZM83.19-18L83.19-0.3Q83.19 0.3 78.99 0.3L78.99 0.3Q73.99 0.1 73.99-0.35L73.99-0.35 73.99-18.05 71.44-18.05Q70.44-18.05 70.44-21.5L70.44-21.5Q70.44-22.4 70.62-23.7 70.79-25 71.34-25L71.34-25 73.99-25 73.99-29.4Q73.99-30.4 78.22-30.4 82.44-30.4 82.44-29.6L82.44-29.6 82.44-26.4 82.49-25 86.74-25Q87.59-25 87.59-21.5 87.59-18 86.74-18L86.74-18 83.19-18ZM114.24-8.4L116.04-24.75Q116.04-25.2 118.79-25.2L118.79-25.2Q124.99-25.2 124.89-24.8L124.89-24.8 119.99-0.5Q119.84 0.3 114.44 0.3 109.04 0.3 108.89-0.5L108.89-0.5 106.84-11.7 104.29-0.5Q104.14 0.25 98.57 0.25 92.99 0.25 92.84-0.65L92.84-0.65 88.39-25Q88.24-25.3 92.69-25.3L92.69-25.3Q97.09-25.25 97.09-25.1L97.09-25.1 99.39-8.2 103.54-24.9Q103.64-25.2 106.84-25.2 110.04-25.2 110.14-24.9L110.14-24.9 114.24-8.4ZM130.84-18.15L130.84-18.15Q129.44-20.65 129.44-22.23 129.44-23.8 130.29-24.25L130.29-24.25Q133.14-25.5 138.11-25.5 143.09-25.5 145.14-23.18 147.19-20.85 147.19-16.3L147.19-16.3 147.19-8.4 148.89-8.4Q149.74-8.4 150.21-7.4 150.69-6.4 150.69-4.65 150.69-2.9 149.81-1.2 148.94 0.5 147.44 0.5L147.44 0.5Q144.74 0.5 143.09-0.95L143.09-0.95Q142.34-1.55 141.94-2.4L141.94-2.4Q139.64 0.5 134.79 0.5L134.79 0.5Q131.14 0.5 128.64-2.1 126.14-4.7 126.14-8.25L126.14-8.25Q126.14-16.4 135.89-16.4L135.89-16.4 138.64-16.4 138.64-16.9Q138.64-18.2 138.21-18.57 137.79-18.95 136.24-18.95L136.24-18.95Q134.34-18.95 130.84-18.15ZM134.84-8.95L134.84-8.95Q134.84-7.85 135.44-7.28 136.04-6.7 136.96-6.7 137.89-6.7 138.64-7.45L138.64-7.45 138.64-11.3 137.24-11.3Q134.84-11.3 134.84-8.95ZM164.49-14L164.49-0.05Q164.49 0.3 159.94 0.3L159.94 0.3Q155.39 0.2 155.39-0.1L155.39-0.1 155.39-16.7 154.04-16.7Q153.24-16.7 152.76-17.68 152.29-18.65 152.29-20.1L152.29-20.1Q152.29-25.5 155.49-25.5L155.49-25.5Q157.74-25.5 159.24-24.13 160.74-22.75 160.74-21L160.74-21Q161.79-23.05 163.56-24.28 165.34-25.5 167.19-25.5L167.19-25.5Q170.09-25.5 170.69-24L170.69-24Q170.84-23.6 170.84-22.83 170.84-22.05 170.36-20.05 169.89-18.05 169.39-17.15 168.89-16.25 168.79-16.25 168.69-16.25 167.86-16.63 167.04-17 166.39-17L166.39-17Q164.49-17 164.49-14L164.49-14ZM192.23-1.35L192.23-1.35Q189.08 0.5 184.13 0.5 179.18 0.5 175.78-2.88 172.38-6.25 172.38-12.23 172.38-18.2 175.66-21.85 178.93-25.5 183.93-25.5 188.93-25.5 191.66-22.95 194.38-20.4 194.38-16.75L194.38-16.75Q194.38-8.65 185.08-8.65L185.08-8.65 181.63-8.65Q181.63-7.15 182.46-6.58 183.28-6 184.88-6L184.88-6Q188.38-6 191.53-7.6L191.53-7.6Q191.58-7.65 191.98-6.9L191.98-6.9Q193.18-4.75 193.18-3.28 193.18-1.8 192.23-1.35ZM185.98-15.8L185.98-15.8Q185.98-17.9 183.93-17.9L183.93-17.9Q182.98-17.9 182.31-17.32 181.63-16.75 181.63-15.65L181.63-15.65 181.63-14.1 184.33-14.1Q185.98-14.1 185.98-15.8ZM206.28-17.45L206.28-17.45Q206.28-26.35 210.75-30.9 215.23-35.45 222.3-35.45 229.38-35.45 233.73-30.98 238.08-26.5 238.08-17.45L238.08-17.45Q238.08-10.5 235.38-6.25 232.68-2 227.98-0.4L227.98-0.4 233.28 3.25Q233.58 3.45 233.58 3.98 233.58 4.5 232.45 5.95 231.33 7.4 229.75 8.18 228.18 8.95 227.38 8.95 226.58 8.95 226.08 8.4L226.08 8.4 218.78 0.3Q213.18-0.75 209.73-5.33 206.28-9.9 206.28-17.45ZM222.18-25.85Q219.78-25.85 218.15-23.65 216.53-21.45 216.53-17.48 216.53-13.5 218.08-11.38 219.63-9.25 222.15-9.25 224.68-9.25 226.25-11.4 227.83-13.55 227.83-17.55 227.83-21.55 226.2-23.7 224.58-25.85 222.18-25.85ZM242.08-9.95L242.08-24.7Q242.08-25.25 246.38-25.25 250.68-25.25 250.68-24.7L250.68-24.7 250.68-10.1Q250.68-7.6 252.28-7.6L252.28-7.6Q253.48-7.6 254.98-8.65L254.98-8.65 254.98-24.7Q254.98-25.2 259.23-25.2 263.48-25.2 263.48-24.7L263.48-24.7 263.48-8.3 264.78-8.3Q266.48-8.3 266.48-5.05L266.48-5.05Q266.48-3.4 265.78-1.7L265.78-1.7Q264.78 0.5 263.08 0.5L263.08 0.5Q259.73 0.5 258.13-2.25L258.13-2.25 258.08-2.2Q255.03 0.5 251.53 0.5L251.53 0.5Q246.68 0.5 244.38-1.93 242.08-4.35 242.08-9.95L242.08-9.95ZM272.67-18.15L272.67-18.15Q271.27-20.65 271.27-22.23 271.27-23.8 272.12-24.25L272.12-24.25Q274.97-25.5 279.95-25.5 284.92-25.5 286.97-23.18 289.02-20.85 289.02-16.3L289.02-16.3 289.02-8.4 290.72-8.4Q291.57-8.4 292.05-7.4 292.52-6.4 292.52-4.65 292.52-2.9 291.65-1.2 290.77 0.5 289.27 0.5L289.27 0.5Q286.57 0.5 284.92-0.95L284.92-0.95Q284.17-1.55 283.77-2.4L283.77-2.4Q281.47 0.5 276.62 0.5L276.62 0.5Q272.97 0.5 270.47-2.1 267.97-4.7 267.97-8.25L267.97-8.25Q267.97-16.4 277.72-16.4L277.72-16.4 280.47-16.4 280.47-16.9Q280.47-18.2 280.05-18.57 279.62-18.95 278.07-18.95L278.07-18.95Q276.17-18.95 272.67-18.15ZM276.67-8.95L276.67-8.95Q276.67-7.85 277.27-7.28 277.87-6.7 278.8-6.7 279.72-6.7 280.47-7.45L280.47-7.45 280.47-11.3 279.07-11.3Q276.67-11.3 276.67-8.95ZM304.47-34.65L304.47-0.4Q304.47 0.05 299.37 0.05L299.37 0.05Q295.37 0 295.37-0.35L295.37-0.35 295.37-34.4Q295.37-35.15 300.22-35.15L300.22-35.15Q304.47-35 304.47-34.65L304.47-34.65ZM318.12-24.85L318.12-0.3Q318.12 0.1 313.54 0.1 308.97 0.1 308.97-0.25L308.97-0.25 308.97-24.8Q308.97-25.15 313.54-25.15 318.12-25.15 318.12-24.85L318.12-24.85ZM318.12-35.15L318.12-27.8Q318.12-27.45 313.54-27.45 308.97-27.45 308.97-27.75L308.97-27.75 308.97-34.95Q308.97-35.45 313.54-35.45 318.12-35.45 318.12-35.15L318.12-35.15ZM334.12-18L334.12-0.3Q334.12 0.3 329.92 0.3L329.92 0.3Q324.92 0.1 324.92-0.35L324.92-0.35 324.92-18.05 322.37-18.05Q321.37-18.05 321.37-21.5L321.37-21.5Q321.37-22.4 321.54-23.7 321.72-25 322.27-25L322.27-25 324.92-25 324.92-29.4Q324.92-30.4 329.14-30.4 333.37-30.4 333.37-29.6L333.37-29.6 333.37-26.4 333.42-25 337.67-25Q338.52-25 338.52-21.5 338.52-18 337.67-18L337.67-18 334.12-18ZM347.76-2L339.26-24.75Q339.26-25.3 343.84-25.3 348.41-25.3 348.56-24.8L348.56-24.8 352.16-13 355.61-24.9Q355.81-25.3 358.71-25.3L358.71-25.3Q365.36-25.3 365.06-24.65L365.06-24.65 353.31 8.8Q353.26 9.1 350.59 9.1 347.91 9.1 345.61 8.93 343.31 8.75 343.41 8.5L343.41 8.5 347.76-2Z" opacity="1" transform="matrix(0.620785, 0, 0, 0.620785, 192.643876, 224.553985)" fill="#dcdcdc" class="undefined-text-1" data-fill-palette-color="secondary" id="text-1"/>
  <path d="M95 66.9c0 3.1-2.5 5.6-5.6 5.6v6.1c3.3 1.2 5.6 4.3 5.6 7.9 0 4.7-3.8 8.4-8.4 8.4-3.7 0-6.8-2.4-7.9-5.6h-6.1c0 3.1-2.5 5.6-5.6 5.6-3.1 0-5.6-2.5-5.6-5.6h-5.6c0 3.1-2.5 5.6-5.6 5.6-3.1 0-5.6-2.5-5.6-5.6h-5.6c0 3.1-2.5 5.6-5.6 5.6-3.1 0-5.6-2.5-5.6-5.6h-6.1c-1.2 3.3-4.3 5.6-7.9 5.6C8.8 95 5 91.2 5 86.5c0-3.7 2.4-6.8 5.6-7.9v-6.1C7.5 72.5 5 70 5 66.9c0-3.1 2.5-5.6 5.6-5.6v-5.6C7.5 55.6 5 53.1 5 50c0-3.1 2.5-5.6 5.6-5.6v-5.6c-3.1 0-5.6-2.5-5.6-5.6 0-3.1 2.5-5.6 5.6-5.6v-6.1C7.4 20.2 5 17.1 5 13.5 5 8.8 8.8 5 13.5 5c3.7 0 6.8 2.4 7.9 5.6h6.1C27.5 7.5 30 5 33.1 5c3.1 0 5.6 2.5 5.6 5.6h5.6C44.4 7.5 46.9 5 50 5c3.1 0 5.6 2.5 5.6 5.6h5.6c0-3.1 2.5-5.6 5.6-5.6 3.1 0 5.6 2.5 5.6 5.6h6.1C79.8 7.4 82.9 5 86.5 5c4.7 0 8.4 3.8 8.4 8.4 0 3.7-2.4 6.8-5.6 7.9v6.1c3.1 0 5.6 2.5 5.6 5.6 0 3.1-2.5 5.6-5.6 5.6v5.6c3.1 0 5.6 2.5 5.6 5.6 0 3.1-2.5 5.6-5.6 5.6v5.6C92.5 61.2 95 63.8 95 66.9zM80.6 23.2c0-1.6-2.2-3.8-3.8-3.8H23.2c-1.6 0-3.8 2.2-3.8 3.8v53.5c0 1.6 2.2 3.8 3.8 3.8h53.5c1.6 0 3.8-2.2 3.8-3.8V23.2z" fill-rule="evenodd" clip-rule="evenodd" fill="#dcdcdc" data-fill-palette-color="accent" transform="matrix(0.928584, 0, 0, 0.928584, 429.544544, 153.616345)"/>
</svg>
