<?xml version="1.0" encoding="utf-8"?>
<svg xmlns="http://www.w3.org/2000/svg" viewBox="126 -1 67 67" width="70" height="70">
  <circle xmlns="http://www.w3.org/2000/svg" stroke-width="2" stroke-linecap="round" stroke-linejoin="round" stroke-miterlimit="10" cx="133.48" cy="6.48" r="6.48" style="stroke: rgb(165, 236, 215);" fill="#a5ecd7"/>
  <circle xmlns="http://www.w3.org/2000/svg" stroke-width="2" stroke-linecap="round" stroke-linejoin="round" stroke-miterlimit="10" cx="146.44" cy="6.48" r="2.43" style="stroke: rgb(165, 236, 215);" fill="#a5ecd7"/>
  <circle xmlns="http://www.w3.org/2000/svg" stroke-width="2" stroke-linecap="round" stroke-linejoin="round" stroke-miterlimit="10" cx="159.4" cy="6.48" r="4.455" style="stroke: rgb(165, 236, 215);" fill="#a5ecd7"/>
  <circle xmlns="http://www.w3.org/2000/svg" stroke-width="2" stroke-linecap="round" stroke-linejoin="round" stroke-miterlimit="10" cx="172.361" cy="6.48" r="2.43" style="stroke: rgb(165, 236, 215);" fill="#a5ecd7"/>
  <path xmlns="http://www.w3.org/2000/svg" stroke-width="2" stroke-linecap="round" stroke-linejoin="round" stroke-miterlimit="10" d="M 191.8 6.48 C 191.8 10.06 188.901 12.962 185.32 12.962 C 181.742 12.962 178.841 10.06 178.841 6.48 C 178.841 2.902 181.742 0 185.32 0 C 188.901 0 191.8 2.902 191.8 6.48 Z" style="stroke: rgb(165, 236, 215);" fill="#a5ecd7"/>
  <path xmlns="http://www.w3.org/2000/svg" stroke-width="2" stroke-linecap="round" stroke-linejoin="round" stroke-miterlimit="10" d="M 150.895 19.442 C 150.895 21.9 148.9 23.895 146.439 23.895 C 143.98 23.895 141.985 21.9 141.985 19.442 C 141.985 16.979 143.98 14.985 146.439 14.985 C 148.901 14.985 150.895 16.979 150.895 19.442 Z" style="stroke: rgb(165, 236, 215);" fill="#a5ecd7"/>
  <circle xmlns="http://www.w3.org/2000/svg" stroke-width="2" stroke-linecap="round" stroke-linejoin="round" stroke-miterlimit="10" cx="159.4" cy="19.44" r="2.429" style="stroke: rgb(165, 236, 215);" fill="#a5ecd7"/>
  <path xmlns="http://www.w3.org/2000/svg" stroke-width="2" stroke-linecap="round" stroke-linejoin="round" stroke-miterlimit="10" d="M 176.814 19.442 C 176.814 21.9 174.822 23.895 172.361 23.895 C 169.9 23.895 167.903 21.9 167.903 19.442 C 167.903 16.979 169.9 14.985 172.361 14.985 C 174.822 14.985 176.814 16.979 176.814 19.442 Z" style="stroke: rgb(165, 236, 215);" fill="#a5ecd7"/>
  <circle xmlns="http://www.w3.org/2000/svg" stroke-width="2" stroke-linecap="round" stroke-linejoin="round" stroke-miterlimit="10" cx="146.44" cy="32.401" r="2.43" style="stroke: rgb(165, 236, 215);" fill="#a5ecd7"/>
  <circle xmlns="http://www.w3.org/2000/svg" stroke-width="2" stroke-linecap="round" stroke-linejoin="round" stroke-miterlimit="10" cx="159.4" cy="32.401" r="6.481" style="stroke: rgb(165, 236, 215);" fill="#a5ecd7"/>
  <circle xmlns="http://www.w3.org/2000/svg" stroke-width="2" stroke-linecap="round" stroke-linejoin="round" stroke-miterlimit="10" cx="172.361" cy="32.401" r="2.43" style="stroke: rgb(165, 236, 215);" fill="#a5ecd7"/>
  <path xmlns="http://www.w3.org/2000/svg" stroke-width="2" stroke-linecap="round" stroke-linejoin="round" stroke-miterlimit="10" d="M 150.895 45.362 C 150.895 47.82 148.9 49.815 146.439 49.815 C 143.98 49.815 141.985 47.82 141.985 45.362 C 141.985 42.898 143.98 40.905 146.439 40.905 C 148.901 40.905 150.895 42.898 150.895 45.362 Z" style="stroke: rgb(165, 236, 215);" fill="#a5ecd7"/>
  <circle xmlns="http://www.w3.org/2000/svg" stroke-width="2" stroke-linecap="round" stroke-linejoin="round" stroke-miterlimit="10" cx="159.399" cy="45.36" r="2.43" style="stroke: rgb(165, 236, 215);" fill="#a5ecd7"/>
  <path xmlns="http://www.w3.org/2000/svg" stroke-width="2" stroke-linecap="round" stroke-linejoin="round" stroke-miterlimit="10" d="M 176.814 45.362 C 176.814 47.82 174.822 49.815 172.361 49.815 C 169.9 49.815 167.903 47.82 167.903 45.362 C 167.903 42.898 169.9 40.905 172.361 40.905 C 174.822 40.905 176.814 42.898 176.814 45.362 Z" style="stroke: rgb(165, 236, 215);" fill="#a5ecd7"/>
  <path xmlns="http://www.w3.org/2000/svg" stroke-width="2" stroke-linecap="round" stroke-linejoin="round" stroke-miterlimit="10" d="M 139.96 58.32 C 139.96 61.897 137.058 64.798 133.479 64.798 C 129.899 64.798 127 61.897 127 58.32 C 127 54.738 129.899 51.842 133.479 51.842 C 137.059 51.842 139.96 54.738 139.96 58.32 Z" style="stroke: rgb(165, 236, 215);" fill="#a5ecd7"/>
  <circle xmlns="http://www.w3.org/2000/svg" stroke-width="2" stroke-linecap="round" stroke-linejoin="round" stroke-miterlimit="10" cx="146.44" cy="58.32" r="2.43" style="stroke: rgb(165, 236, 215);" fill="#a5ecd7"/>
  <circle xmlns="http://www.w3.org/2000/svg" stroke-width="2" stroke-linecap="round" stroke-linejoin="round" stroke-miterlimit="10" cx="159.4" cy="58.32" r="4.455" style="stroke: rgb(165, 236, 215);" fill="#a5ecd7"/>
  <circle xmlns="http://www.w3.org/2000/svg" stroke-width="2" stroke-linecap="round" stroke-linejoin="round" stroke-miterlimit="10" cx="172.36" cy="58.32" r="2.429" style="stroke: rgb(165, 236, 215);" fill="#a5ecd7"/>
  <circle xmlns="http://www.w3.org/2000/svg" stroke-width="2" stroke-linecap="round" stroke-linejoin="round" stroke-miterlimit="10" cx="133.479" cy="45.36" r="2.43" style="stroke: rgb(165, 236, 215);" fill="#a5ecd7"/>
  <path xmlns="http://www.w3.org/2000/svg" stroke-width="2" stroke-linecap="round" stroke-linejoin="round" stroke-miterlimit="10" d="M 133.479 27.946 C 135.941 27.946 137.934 29.938 137.934 32.401 C 137.934 34.86 135.94 36.855 133.479 36.855 C 131.019 36.855 129.026 34.86 129.026 32.401 C 129.026 29.938 131.019 27.946 133.479 27.946 Z" style="stroke: rgb(165, 236, 215);" fill="#a5ecd7"/>
  <circle xmlns="http://www.w3.org/2000/svg" stroke-width="2" stroke-linecap="round" stroke-linejoin="round" stroke-miterlimit="10" cx="133.479" cy="19.441" r="2.43" style="stroke: rgb(165, 236, 215);" fill="#a5ecd7"/>
  <circle xmlns="http://www.w3.org/2000/svg" stroke-width="2" stroke-linecap="round" stroke-linejoin="round" stroke-miterlimit="10" cx="185.32" cy="45.36" r="2.43" style="stroke: rgb(165, 236, 215);" fill="#a5ecd7"/>
  <path xmlns="http://www.w3.org/2000/svg" stroke-width="2" stroke-linecap="round" stroke-linejoin="round" stroke-miterlimit="10" d="M 185.32 27.947 C 187.782 27.947 189.777 29.94 189.777 32.401 C 189.777 34.86 187.782 36.855 185.32 36.855 C 182.862 36.855 180.867 34.86 180.867 32.401 C 180.867 29.94 182.862 27.947 185.32 27.947 Z" style="stroke: rgb(165, 236, 215);" fill="#a5ecd7"/>
  <circle xmlns="http://www.w3.org/2000/svg" stroke-width="2" stroke-linecap="round" stroke-linejoin="round" stroke-miterlimit="10" cx="185.32" cy="19.441" r="2.429" style="stroke: rgb(165, 236, 215);" fill="#a5ecd7"/>
  <path xmlns="http://www.w3.org/2000/svg" stroke-width="2" stroke-linecap="round" stroke-linejoin="round" stroke-miterlimit="10" d="M 191.8 58.32 C 191.8 61.897 188.901 64.8 185.32 64.8 C 181.742 64.8 178.841 61.897 178.841 58.32 C 178.841 54.738 181.742 51.84 185.32 51.84 C 188.901 51.84 191.8 54.738 191.8 58.32 Z" style="stroke: rgb(165, 236, 215);" fill="#a5ecd7"/>
</svg>
