<?xml version="1.0" encoding="utf-8"?>
<svg viewBox="434.187 158.259 83.573 83.481" width="83.573px" height="83.481px" xmlns="http://www.w3.org/2000/svg">
  <path d="M95 66.9c0 3.1-2.5 5.6-5.6 5.6v6.1c3.3 1.2 5.6 4.3 5.6 7.9 0 4.7-3.8 8.4-8.4 8.4-3.7 0-6.8-2.4-7.9-5.6h-6.1c0 3.1-2.5 5.6-5.6 5.6-3.1 0-5.6-2.5-5.6-5.6h-5.6c0 3.1-2.5 5.6-5.6 5.6-3.1 0-5.6-2.5-5.6-5.6h-5.6c0 3.1-2.5 5.6-5.6 5.6-3.1 0-5.6-2.5-5.6-5.6h-6.1c-1.2 3.3-4.3 5.6-7.9 5.6C8.8 95 5 91.2 5 86.5c0-3.7 2.4-6.8 5.6-7.9v-6.1C7.5 72.5 5 70 5 66.9c0-3.1 2.5-5.6 5.6-5.6v-5.6C7.5 55.6 5 53.1 5 50c0-3.1 2.5-5.6 5.6-5.6v-5.6c-3.1 0-5.6-2.5-5.6-5.6 0-3.1 2.5-5.6 5.6-5.6v-6.1C7.4 20.2 5 17.1 5 13.5 5 8.8 8.8 5 13.5 5c3.7 0 6.8 2.4 7.9 5.6h6.1C27.5 7.5 30 5 33.1 5c3.1 0 5.6 2.5 5.6 5.6h5.6C44.4 7.5 46.9 5 50 5c3.1 0 5.6 2.5 5.6 5.6h5.6c0-3.1 2.5-5.6 5.6-5.6 3.1 0 5.6 2.5 5.6 5.6h6.1C79.8 7.4 82.9 5 86.5 5c4.7 0 8.4 3.8 8.4 8.4 0 3.7-2.4 6.8-5.6 7.9v6.1c3.1 0 5.6 2.5 5.6 5.6 0 3.1-2.5 5.6-5.6 5.6v5.6c3.1 0 5.6 2.5 5.6 5.6 0 3.1-2.5 5.6-5.6 5.6v5.6C92.5 61.2 95 63.8 95 66.9zM80.6 23.2c0-1.6-2.2-3.8-3.8-3.8H23.2c-1.6 0-3.8 2.2-3.8 3.8v53.5c0 1.6 2.2 3.8 3.8 3.8h53.5c1.6 0 3.8-2.2 3.8-3.8V23.2z" fill-rule="evenodd" clip-rule="evenodd" fill="#dcdcdc" data-fill-palette-color="accent" transform="matrix(0.928584, 0, 0, 0.928584, 429.544544, 153.616345)"/>
</svg>
